<?xml version="1.0" encoding="UTF-8"?>
<svg xmlns="http://www.w3.org/2000/svg" xmlns:xlink="http://www.w3.org/1999/xlink" viewBox="0 0 40 40" width="40px" height="40px">
<g id="surface16062529">
<path style=" stroke:none;fill-rule:nonzero;fill:rgb(100%,100%,100%);fill-opacity:1;" d="M 32 0 C 27.625 0 24.054688 3.539062 24 7.898438 L 12.726562 13.550781 C 11.398438 12.574219 9.765625 12 8 12 C 3.589844 12 0 15.589844 0 20 C 0 24.410156 3.589844 28 8 28 C 9.765625 28 11.398438 27.425781 12.726562 26.449219 L 24 32.101562 C 24.054688 36.460938 27.625 40 32 40 C 36.410156 40 40 36.410156 40 32 C 40 27.589844 36.410156 24 32 24 C 30.300781 24 28.722656 24.539062 27.425781 25.449219 L 16.5 20 L 27.425781 14.550781 C 28.722656 15.460938 30.300781 16 32 16 C 36.410156 16 40 12.410156 40 8 C 40 3.589844 36.410156 0 32 0 Z M 32 1.601562 C 35.542969 1.601562 38.398438 4.457031 38.398438 8 C 38.398438 11.542969 35.542969 14.398438 32 14.398438 C 30.691406 14.398438 29.488281 13.992188 28.476562 13.324219 C 28.375 12.992188 28.070312 12.757812 27.726562 12.75 C 27.722656 12.746094 27.703125 12.753906 27.699219 12.75 C 26.585938 11.742188 25.835938 10.328125 25.648438 8.75 C 25.820312 8.46875 25.800781 8.113281 25.601562 7.851562 C 25.679688 4.378906 28.507812 1.601562 32 1.601562 Z M 24.175781 9.601562 C 24.472656 11.046875 25.160156 12.351562 26.125 13.398438 L 15.851562 18.550781 C 15.578125 17.085938 14.925781 15.769531 13.976562 14.699219 Z M 8 13.601562 C 9.480469 13.601562 10.84375 14.085938 11.925781 14.925781 C 11.933594 14.929688 11.941406 14.945312 11.949219 14.949219 C 11.957031 14.964844 11.964844 14.984375 11.976562 15 C 12.042969 15.085938 12.128906 15.148438 12.226562 15.199219 C 12.226562 15.203125 12.246094 15.195312 12.25 15.199219 C 13.445312 16.261719 14.238281 17.777344 14.375 19.476562 C 14.285156 19.695312 14.292969 19.941406 14.398438 20.148438 C 14.382812 20.214844 14.375 20.28125 14.375 20.351562 C 14.277344 22.125 13.472656 23.703125 12.226562 24.800781 C 12.148438 24.847656 12.082031 24.90625 12.023438 24.976562 C 10.925781 25.867188 9.53125 26.398438 8 26.398438 C 4.457031 26.398438 1.601562 23.542969 1.601562 20 C 1.601562 16.457031 4.457031 13.601562 8 13.601562 Z M 15.851562 21.449219 L 26.125 26.601562 C 25.160156 27.648438 24.472656 28.953125 24.175781 30.398438 L 13.976562 25.300781 C 14.925781 24.230469 15.578125 22.914062 15.851562 21.449219 Z M 32 25.601562 C 35.542969 25.601562 38.398438 28.457031 38.398438 32 C 38.398438 35.542969 35.542969 38.398438 32 38.398438 C 28.457031 38.398438 25.601562 35.542969 25.601562 32 C 25.601562 30.074219 26.4375 28.347656 27.773438 27.175781 C 27.792969 27.160156 27.808594 27.144531 27.824219 27.125 C 27.828125 27.121094 27.847656 27.128906 27.851562 27.125 C 27.976562 27.070312 28.089844 26.984375 28.175781 26.875 C 29.242188 26.078125 30.558594 25.601562 32 25.601562 Z M 32 25.601562 "/>
</g>
</svg>
