<?xml version="1.0" encoding="UTF-8"?>
<svg xmlns="http://www.w3.org/2000/svg" xmlns:xlink="http://www.w3.org/1999/xlink" viewBox="0 0 40 40" width="40px" height="40px">
<g id="surface16052094">
<path style=" stroke:none;fill-rule:nonzero;fill:rgb(100%,100%,100%);fill-opacity:1;" d="M 34.5 1.601562 C 33.503906 1.601562 32.507812 1.992188 31.75 2.75 L 31.101562 3.398438 L 36.601562 8.898438 C 36.597656 8.902344 37.25 8.25 37.25 8.25 C 38.773438 6.726562 38.769531 4.269531 37.25 2.75 C 36.488281 1.992188 35.496094 1.601562 34.5 1.601562 Z M 29.875 4.824219 C 29.695312 4.851562 29.523438 4.941406 29.398438 5.074219 L 3.449219 31.050781 C 3.347656 31.144531 3.269531 31.265625 3.226562 31.398438 L 1.625 37.398438 C 1.554688 37.675781 1.632812 37.964844 1.835938 38.164062 C 2.035156 38.367188 2.324219 38.445312 2.601562 38.375 L 8.601562 36.773438 C 8.734375 36.730469 8.855469 36.652344 8.949219 36.550781 L 34.925781 10.601562 C 35.242188 10.289062 35.246094 9.78125 34.9375 9.460938 C 34.628906 9.144531 34.117188 9.140625 33.800781 9.449219 L 7.976562 35.273438 L 4.726562 32.023438 L 30.550781 6.199219 C 30.789062 5.96875 30.863281 5.609375 30.726562 5.304688 C 30.59375 4.996094 30.285156 4.804688 29.949219 4.824219 C 29.925781 4.824219 29.898438 4.824219 29.875 4.824219 Z M 29.875 4.824219 "/>
</g>
</svg>
