<?xml version="1.0" encoding="UTF-8"?>
<svg xmlns="http://www.w3.org/2000/svg" xmlns:xlink="http://www.w3.org/1999/xlink" viewBox="0 0 40 40" width="40px" height="40px">
<g id="surface108172291">
<path style=" stroke:none;fill-rule:nonzero;fill:rgb(100%,100%,100%);fill-opacity:1;" d="M 19.898438 2.648438 C 16.148438 2.734375 13.773438 4.253906 12.75 6.601562 C 11.777344 8.835938 11.980469 11.648438 12.675781 14.574219 C 12.304688 15.011719 11.996094 15.628906 12.074219 16.550781 L 12.074219 16.601562 C 12.210938 17.574219 12.503906 18.261719 12.875 18.75 C 13.054688 18.980469 13.304688 18.992188 13.523438 19.125 C 13.71875 20.214844 14.152344 21.257812 14.648438 22.074219 C 14.675781 22.195312 14.726562 22.304688 14.800781 22.398438 C 14.800781 22.398438 14.882812 22.503906 14.898438 22.523438 C 15.148438 22.898438 15.273438 23.421875 15.273438 24 C 15.273438 24.617188 15.265625 25.1875 15.199219 25.824219 C 14.960938 26.429688 14.359375 26.914062 13.398438 27.398438 C 12.398438 27.90625 11.085938 28.371094 9.75 28.949219 C 8.414062 29.527344 7.0625 30.222656 5.976562 31.324219 C 4.886719 32.429688 4.109375 33.957031 4 35.949219 L 3.949219 36.800781 L 36.050781 36.800781 L 36 35.949219 C 35.890625 33.957031 35.132812 32.429688 34.050781 31.324219 C 32.96875 30.21875 31.609375 29.527344 30.273438 28.949219 C 28.941406 28.371094 27.617188 27.910156 26.601562 27.398438 C 25.613281 26.90625 24.992188 26.402344 24.726562 25.773438 C 24.664062 25.019531 24.648438 24.421875 24.648438 23.75 C 24.648438 23.320312 24.796875 22.933594 25.050781 22.550781 C 25.054688 22.539062 25.070312 22.535156 25.074219 22.523438 C 25.078125 22.519531 25.125 22.476562 25.125 22.476562 C 25.226562 22.371094 25.292969 22.242188 25.324219 22.101562 C 25.808594 21.269531 26.210938 20.210938 26.398438 19.148438 C 26.648438 19.019531 26.929688 19.003906 27.125 18.75 C 27.507812 18.246094 27.734375 17.53125 27.824219 16.550781 C 27.898438 15.703125 27.652344 15.085938 27.273438 14.625 C 27.691406 13.34375 28.183594 11.292969 28.023438 9.199219 C 27.9375 8.050781 27.632812 6.902344 26.949219 5.949219 C 26.332031 5.085938 25.332031 4.496094 24.074219 4.226562 C 23.226562 3.09375 21.691406 2.648438 19.925781 2.648438 Z M 19.925781 4.25 C 19.933594 4.25 19.941406 4.25 19.949219 4.25 C 21.546875 4.257812 22.570312 4.707031 22.898438 5.273438 L 23.101562 5.625 L 23.5 5.675781 C 24.601562 5.828125 25.203125 6.253906 25.648438 6.875 C 26.097656 7.496094 26.351562 8.367188 26.425781 9.324219 C 26.570312 11.246094 26.015625 13.5 25.648438 14.523438 L 25.398438 15.199219 L 26.023438 15.523438 C 26.019531 15.546875 26.28125 15.8125 26.25 16.398438 C 26.25 16.414062 26.25 16.414062 26.25 16.425781 C 26.175781 17.179688 25.980469 17.601562 25.851562 17.773438 C 25.714844 17.949219 25.648438 17.925781 25.675781 17.925781 L 24.976562 17.925781 L 24.875 18.625 C 24.738281 19.664062 24.210938 20.96875 23.75 21.625 L 23.726562 21.625 C 23.679688 21.695312 23.644531 21.773438 23.601562 21.851562 C 23.390625 22.09375 23.074219 22.414062 22.625 22.800781 C 21.878906 23.4375 20.886719 24 20 24 C 19.117188 24 18.117188 23.410156 17.351562 22.75 C 16.683594 22.179688 16.289062 21.6875 16.175781 21.550781 C 16.171875 21.542969 16.179688 21.53125 16.175781 21.523438 C 15.703125 20.84375 15.164062 19.648438 15.023438 18.625 L 14.949219 17.925781 L 14.300781 17.925781 C 14.273438 17.914062 14.195312 17.871094 14.125 17.773438 C 13.984375 17.589844 13.785156 17.160156 13.675781 16.425781 C 13.675781 16.410156 13.675781 16.414062 13.675781 16.398438 C 13.671875 16.386719 13.679688 16.386719 13.675781 16.375 C 13.664062 15.769531 14.039062 15.429688 13.976562 15.476562 L 14.425781 15.148438 L 14.300781 14.601562 C 13.5625 11.683594 13.445312 9.042969 14.226562 7.25 C 15.003906 5.460938 16.578125 4.332031 19.925781 4.25 Z M 16.875 24.425781 C 17.71875 25.046875 18.773438 25.601562 20 25.601562 C 21.199219 25.601562 22.226562 25.074219 23.050781 24.476562 C 23.054688 24.960938 23.070312 25.460938 23.125 26.074219 L 23.125 26.175781 L 23.175781 26.273438 C 23.316406 26.644531 23.515625 26.957031 23.75 27.25 C 23.742188 27.28125 23.730469 27.316406 23.726562 27.351562 C 23.726562 27.351562 23.535156 27.875 22.976562 28.449219 C 22.414062 29.023438 21.546875 29.601562 20 29.601562 C 18.460938 29.601562 17.558594 29 16.976562 28.398438 C 16.390625 27.800781 16.199219 27.25 16.199219 27.25 C 16.429688 26.949219 16.621094 26.628906 16.75 26.25 L 16.800781 26.101562 C 16.867188 25.492188 16.875 24.945312 16.875 24.425781 Z M 25 28.351562 C 25.28125 28.53125 25.570312 28.699219 25.875 28.851562 C 27.042969 29.429688 28.367188 29.882812 29.625 30.425781 C 30.882812 30.96875 32.054688 31.585938 32.898438 32.449219 C 33.574219 33.140625 33.980469 34.058594 34.199219 35.199219 L 5.800781 35.199219 C 6.019531 34.058594 6.421875 33.140625 7.101562 32.449219 C 7.949219 31.585938 9.144531 30.96875 10.398438 30.425781 C 11.65625 29.882812 12.96875 29.433594 14.125 28.851562 C 14.414062 28.703125 14.707031 28.550781 14.976562 28.375 C 15.152344 28.695312 15.429688 29.117188 15.824219 29.523438 C 16.640625 30.367188 18.023438 31.199219 20 31.199219 C 21.972656 31.199219 23.324219 30.375 24.125 29.550781 C 24.5625 29.101562 24.828125 28.679688 25 28.351562 Z M 25 28.351562 "/>
</g>
</svg>
