<?xml version="1.0" encoding="UTF-8"?>
<svg xmlns="http://www.w3.org/2000/svg" xmlns:xlink="http://www.w3.org/1999/xlink" viewBox="0 0 40 40" width="40px" height="40px">
<g id="surface108165210">
<path style=" stroke:none;fill-rule:nonzero;fill:rgb(100%,100%,100%);fill-opacity:1;" d="M 2.398438 3.199219 C 1.085938 3.199219 0 4.285156 0 5.601562 L 0 35.125 C -0.0507812 35.308594 -0.03125 35.503906 0.0507812 35.675781 C 0.273438 36.765625 1.25 37.601562 2.398438 37.601562 L 33.601562 37.601562 C 34.792969 37.601562 35.773438 36.699219 35.949219 35.550781 C 35.957031 35.5 35.972656 35.449219 35.976562 35.398438 C 35.976562 35.382812 35.976562 35.367188 35.976562 35.351562 L 36 35.226562 C 36 35.214844 36 35.210938 36 35.199219 L 39.976562 13.75 L 40 13.675781 L 40 13.601562 C 40 12.285156 38.914062 11.199219 37.601562 11.199219 L 37.601562 8.800781 C 37.601562 7.484375 36.515625 6.398438 35.199219 6.398438 L 14.425781 6.398438 C 14.429688 6.402344 14.417969 6.398438 14.398438 6.398438 C 14.375 6.382812 14.304688 6.320312 14.175781 6.175781 C 13.976562 5.949219 13.75 5.574219 13.5 5.175781 C 13.25 4.773438 12.980469 4.351562 12.648438 3.976562 C 12.320312 3.601562 11.855469 3.199219 11.199219 3.199219 Z M 2.398438 4.800781 L 11.199219 4.800781 C 11.148438 4.800781 11.253906 4.800781 11.449219 5.023438 C 11.648438 5.25 11.875 5.625 12.125 6.023438 C 12.375 6.425781 12.648438 6.851562 12.976562 7.226562 C 13.300781 7.601562 13.742188 8 14.398438 8 L 35.199219 8 C 35.648438 8 36 8.351562 36 8.800781 L 36 11.199219 L 6.398438 11.199219 C 5.140625 11.199219 4.136719 12.210938 4.050781 13.449219 L 4.023438 13.449219 L 4 13.601562 L 1.601562 26.550781 L 1.601562 5.601562 C 1.601562 5.148438 1.949219 4.800781 2.398438 4.800781 Z M 6.398438 12.800781 L 37.601562 12.800781 C 38.050781 12.800781 38.398438 13.148438 38.398438 13.601562 L 34.476562 34.824219 L 34.449219 34.875 C 34.441406 34.90625 34.429688 34.941406 34.425781 34.976562 C 34.414062 35.007812 34.40625 35.039062 34.398438 35.074219 C 34.398438 35.089844 34.398438 35.109375 34.398438 35.125 C 34.398438 35.132812 34.398438 35.140625 34.398438 35.148438 C 34.386719 35.191406 34.382812 35.230469 34.375 35.273438 C 34.371094 35.300781 34.378906 35.324219 34.375 35.351562 C 34.371094 35.382812 34.371094 35.414062 34.375 35.449219 C 34.273438 35.773438 33.964844 36 33.601562 36 L 2.398438 36 C 1.949219 36 1.601562 35.648438 1.601562 35.199219 L 5.574219 13.75 L 5.601562 13.675781 L 5.601562 13.601562 C 5.601562 13.148438 5.949219 12.800781 6.398438 12.800781 Z M 6.398438 12.800781 "/>
</g>
</svg>
